<svg width="18" height="15" viewBox="0 0 18 15" fill="none" xmlns="http://www.w3.org/2000/svg">
<path d="M16.1835 4.0375C16.1945 4.1885 16.1945 4.3395 16.1945 4.4915C16.1945 9.0965 12.6885 14.4035 6.28148 14.4035C4.30748 14.4035 2.47348 13.8315 0.930481 12.8395C1.21148 12.8715 1.48148 12.8815 1.77248 12.8815C3.40148 12.8815 4.89948 12.3315 6.09748 11.3935C4.56548 11.3615 3.28248 10.3575 2.84048 8.9765C3.05548 9.0085 3.27148 9.0305 3.49648 9.0305C3.81048 9.0305 4.12348 8.9875 4.41448 8.9125C2.81848 8.5885 1.62048 7.1865 1.62048 5.4935C1.62048 5.4825 1.62048 5.4605 1.62048 5.4505C2.08448 5.7085 2.62348 5.8705 3.19548 5.8925C2.25748 5.2665 1.64248 4.1985 1.64248 2.9915C1.64248 2.3445 1.81548 1.7505 2.11748 1.2325C3.83248 3.3475 6.41048 4.7285 9.30148 4.8785C9.24648 4.6195 9.21448 4.3495 9.21448 4.0795C9.21448 2.1605 10.7685 0.596497 12.6985 0.596497C13.7015 0.596497 14.6075 1.0165 15.2445 1.6965C16.0315 1.5455 16.7855 1.2545 17.4555 0.855497C17.1965 1.6645 16.6465 2.3445 15.9235 2.7745C16.6255 2.6995 17.3045 2.5055 17.9305 2.2355C17.4555 2.9255 16.8625 3.5415 16.1835 4.0375Z" fill="white"/>
</svg>
